<svg width="571" height="36" viewBox="0 0 571 36" fill="none" xmlns="http://www.w3.org/2000/svg">
<g opacity="0.55">
<path opacity="0.55" d="M33.362 11.637C33.815 11.637 33.962 11.801 33.962 12.237V22.2H39.082C39.522 22.2 39.682 22.364 39.682 22.8V23.687C39.682 24.127 39.518 24.287 39.082 24.287H32.343C31.903 24.287 31.727 24.123 31.727 23.687V12.241C31.727 11.801 31.903 11.641 32.343 11.641L33.362 11.637Z" fill="#394149"/>
<path opacity="0.55" d="M44.156 16.0271C44.156 13.1211 45.993 11.3721 49.188 11.3721C52.383 11.3721 54.22 13.1211 54.22 16.0271V19.9021C54.22 22.8081 52.371 24.5571 49.188 24.5571C46.005 24.5571 44.156 22.8071 44.156 19.9011V16.0271ZM52.107 16.0271C52.107 14.3921 51.088 13.5111 49.251 13.5111C47.414 13.5111 46.408 14.4041 46.408 16.0271V19.9271C46.408 21.5751 47.414 22.4431 49.251 22.4431C51.088 22.4431 52.107 21.5371 52.107 19.9271V16.0271Z" fill="#394149"/>
<path opacity="0.55" d="M69.204 17.36C69.695 17.36 69.804 17.524 69.804 17.96V20.35C69.8182 20.9133 69.7061 21.4726 69.476 21.9869C69.2458 22.5011 68.9034 22.9574 68.474 23.322C67.4069 24.172 66.0613 24.5938 64.7 24.505C61.442 24.505 59.668 22.756 59.668 19.85V15.95C59.668 13.082 61.505 11.321 64.7 11.321C67.216 11.321 68.851 12.315 69.543 14.302C69.5817 14.3767 69.6024 14.4594 69.6036 14.5434C69.6048 14.6275 69.5863 14.7107 69.5497 14.7864C69.5132 14.8621 69.4594 14.9283 69.3928 14.9796C69.3262 15.0309 69.2485 15.066 69.166 15.082L68.185 15.422C67.757 15.573 67.585 15.485 67.43 15.045C67.2214 14.5078 66.8398 14.0554 66.3454 13.7593C65.851 13.4632 65.272 13.3403 64.7 13.41C62.851 13.41 61.844 14.303 61.844 15.926V19.926C61.844 21.574 62.863 22.442 64.7 22.442C66.537 22.442 67.669 21.599 67.669 20.366V19.435H64.938C64.485 19.435 64.322 19.259 64.322 18.819V17.964C64.322 17.524 64.486 17.364 64.938 17.364L69.204 17.36Z" fill="#394149"/>
<path opacity="0.55" d="M75.003 16.0271C75.003 13.1211 76.84 11.3721 80.035 11.3721C83.23 11.3721 85.067 13.1211 85.067 16.0271V19.9021C85.067 22.8081 83.218 24.5571 80.035 24.5571C76.852 24.5571 75.003 22.8081 75.003 19.9021V16.0271ZM82.941 16.0271C82.941 14.3921 81.922 13.5111 80.098 13.5111C78.274 13.5111 77.242 14.4041 77.242 16.0271V19.9271C77.242 21.5751 78.261 22.4431 80.098 22.4431C81.935 22.4431 82.941 21.5371 82.941 19.9271V16.0271Z" fill="#394149"/>
<path opacity="0.55" d="M90.992 12.002C90.992 11.725 91.08 11.637 91.357 11.637H91.936C92.213 11.637 92.276 11.725 92.276 12.002V23.928C92.276 24.205 92.276 24.293 91.936 24.293H91.357C91.08 24.293 90.992 24.205 90.992 23.928V12.002Z" fill="#394149"/>
<path opacity="0.55" d="M103.739 11.637C104.787 11.637 105.791 12.0531 106.532 12.7939C107.273 13.5347 107.689 14.5394 107.689 15.587C107.689 16.6346 107.273 17.6393 106.532 18.38C105.791 19.1208 104.787 19.537 103.739 19.537H99.962V23.927C99.962 24.204 99.899 24.292 99.635 24.292H99.039C98.775 24.292 98.674 24.204 98.674 23.927V12.002C98.674 11.725 98.774 11.637 99.039 11.637H103.739ZM103.623 18.287C104.35 18.287 105.048 17.998 105.562 17.4837C106.077 16.9694 106.366 16.2718 106.366 15.5445C106.366 14.8171 106.077 14.1195 105.562 13.6052C105.048 13.0909 104.35 12.802 103.623 12.802H99.849V18.287H103.623Z" fill="#394149"/>
<path opacity="0.55" d="M117.511 11.3849C118.482 11.2776 119.462 11.4864 120.305 11.9804C121.148 12.4744 121.81 13.2272 122.191 14.1269C122.291 14.3269 122.191 14.4919 121.991 14.5919L121.437 14.8439C121.211 14.9319 121.122 14.9189 120.984 14.6799C120.699 14.012 120.209 13.4521 119.584 13.0813C118.96 12.7104 118.234 12.5478 117.511 12.6169C115.385 12.6169 114.228 13.4599 114.228 14.9689C114.216 15.4306 114.371 15.881 114.665 16.2371C114.959 16.5931 115.372 16.8307 115.828 16.9059C116.505 17.1257 117.206 17.26 117.916 17.3059C118.776 17.3518 119.624 17.5257 120.432 17.8219C121.052 18.0176 121.585 18.4209 121.943 18.9638C122.3 19.5067 122.46 20.1561 122.395 20.8029C122.395 23.1549 120.684 24.5769 117.539 24.5769C116.508 24.696 115.468 24.4586 114.59 23.904C113.713 23.3495 113.052 22.5113 112.718 21.5289C112.696 21.484 112.684 21.4349 112.683 21.3849C112.682 21.3348 112.692 21.2852 112.713 21.2396C112.733 21.1939 112.763 21.1534 112.801 21.1207C112.839 21.0881 112.884 21.0643 112.932 21.0509L113.486 20.8509C113.53 20.8331 113.576 20.8246 113.624 20.8259C113.671 20.8272 113.717 20.8382 113.76 20.8583C113.802 20.8785 113.84 20.9072 113.871 20.9428C113.902 20.9783 113.925 21.0199 113.939 21.0649C114.221 21.7757 114.722 22.3782 115.369 22.7853C116.016 23.1924 116.776 23.3828 117.539 23.3289C119.917 23.3289 121.087 22.4989 121.087 20.8129C121.109 20.3697 120.973 19.9331 120.704 19.5807C120.434 19.2282 120.048 18.9827 119.615 18.8879C118.964 18.6939 118.293 18.5757 117.615 18.5359L116.256 18.3599C115.831 18.2696 115.411 18.156 114.998 18.0199C114.59 17.8969 114.21 17.6962 113.878 17.4289C113.545 17.127 113.282 16.7555 113.108 16.3408C112.934 15.9261 112.854 15.4782 112.872 15.0289C112.957 12.8189 114.605 11.3849 117.511 11.3849Z" fill="#394149"/>
<path opacity="0.55" d="M129.173 19.987C129.236 20.8695 129.632 21.6953 130.279 22.2981C130.927 22.901 131.779 23.2361 132.664 23.2361C133.549 23.2361 134.401 22.901 135.049 22.2981C135.696 21.6953 136.092 20.8695 136.155 19.987V12.002C136.155 11.725 136.243 11.637 136.52 11.637H137.099C137.376 11.637 137.464 11.725 137.464 12.002V19.978C137.464 22.834 135.778 24.557 132.671 24.557C129.564 24.557 127.878 22.834 127.878 19.978V12.002C127.878 11.725 127.966 11.637 128.23 11.637H128.821C129.085 11.637 129.173 11.725 129.173 12.002V19.987Z" fill="#394149"/>
<path opacity="0.55" d="M154.824 11.6359C155.101 11.6359 155.189 11.7239 155.189 12.0009V23.9269C155.189 24.2039 155.101 24.2919 154.824 24.2919H154.296C154.032 24.2919 153.944 24.2039 153.944 23.9269V16.6689C153.944 15.6126 154.016 14.5575 154.158 13.5109H154.083C153.69 14.4678 153.232 15.3966 152.712 16.2909L150.012 21.0589C149.979 21.1416 149.922 21.2123 149.847 21.2617C149.773 21.3112 149.686 21.337 149.597 21.3359H149.245C149.154 21.3365 149.066 21.3107 148.99 21.2614C148.913 21.2122 148.854 21.1418 148.817 21.0589L146.075 16.2409C145.588 15.3594 145.168 14.4428 144.817 13.4989H144.742C144.87 14.5551 144.937 15.6179 144.942 16.6819V23.9279C144.942 24.2049 144.854 24.2929 144.577 24.2929H144.076C143.799 24.2929 143.711 24.2049 143.711 23.9279V12.0009C143.711 11.7239 143.799 11.6359 144.076 11.6359H144.529C144.632 11.6264 144.735 11.6491 144.825 11.7009C144.914 11.7527 144.986 11.8309 145.029 11.9249L149.429 19.7499L153.807 12.0009C153.945 11.7369 154.021 11.7009 154.298 11.7009L154.824 11.6359Z" fill="#394149"/>
<path opacity="0.55" d="M10.982 22.38V31.48C10.9726 31.8223 10.8299 32.1475 10.5844 32.3863C10.339 32.6251 10.01 32.7587 9.6675 32.7587C9.32502 32.7587 8.99605 32.6251 8.75056 32.3863C8.50508 32.1475 8.36244 31.8223 8.353 31.48V22.393C8.71898 22.6604 9.15787 22.8097 9.611 22.821C10.1048 22.8351 10.5886 22.6799 10.982 22.381V22.38ZM22.182 19.751C21.8484 19.751 21.5284 19.8835 21.2925 20.1195C21.0565 20.3554 20.924 20.6754 20.924 21.009V22.594C20.9334 22.9363 21.0761 23.2615 21.3216 23.5003C21.5671 23.7391 21.896 23.8727 22.2385 23.8727C22.581 23.8727 22.9099 23.7391 23.1554 23.5003C23.4009 23.2615 23.5436 22.9363 23.553 22.594V21.072C23.5628 20.8916 23.5336 20.7113 23.4675 20.5432C23.4014 20.3751 23.2998 20.2232 23.1697 20.0978C23.0396 19.9725 22.8841 19.8766 22.7137 19.8168C22.5432 19.757 22.3619 19.7345 22.182 19.751ZM5.5 25.827C5.04671 25.8141 4.60776 25.6653 4.24 25.4V34.52C4.24 34.6935 4.27417 34.8653 4.34056 35.0255C4.40694 35.1858 4.50425 35.3314 4.62691 35.4541C4.74958 35.5768 4.8952 35.6741 5.05548 35.7404C5.21575 35.8068 5.38752 35.841 5.561 35.841C5.73448 35.841 5.90625 35.8068 6.06652 35.7404C6.2268 35.6741 6.37242 35.5768 6.49509 35.4541C6.61775 35.3314 6.71506 35.1858 6.78144 35.0255C6.84783 34.8653 6.882 34.6935 6.882 34.52V25.462C6.47123 25.7278 5.98641 25.8556 5.498 25.827H5.5ZM18.08 17.021C17.9096 17.0125 17.7392 17.0387 17.5792 17.0981C17.4192 17.1574 17.273 17.2487 17.1494 17.3664C17.0259 17.4841 16.9275 17.6257 16.8604 17.7826C16.7933 17.9395 16.7588 18.1084 16.759 18.279V25.286C16.759 25.6364 16.8982 25.9724 17.1459 26.2201C17.3936 26.4678 17.7296 26.607 18.08 26.607C18.4304 26.607 18.7664 26.4678 19.0141 26.2201C19.2618 25.9724 19.401 25.6364 19.401 25.286V18.367C19.411 18.1854 19.3816 18.0038 19.3147 17.8347C19.2478 17.6656 19.1451 17.513 19.0135 17.3875C18.882 17.2619 18.7248 17.1664 18.5527 17.1074C18.3807 17.0485 18.1979 17.0275 18.017 17.046L18.08 17.021ZM13.9 19.713C13.4261 19.7098 12.9647 19.5604 12.579 19.285V28.431C12.579 28.7814 12.7182 29.1174 12.9659 29.3651C13.2136 29.6128 13.5496 29.752 13.9 29.752C14.2504 29.752 14.5864 29.6128 14.8341 29.3651C15.0818 29.1174 15.221 28.7814 15.221 28.431V19.3C14.8218 19.5972 14.3345 19.7521 13.837 19.74L13.9 19.713ZM2.642 26.72V1.17C2.63858 0.858507 2.51243 0.560936 2.29094 0.341884C2.06946 0.122832 1.77051 -1.88072e-05 1.459 2.15957e-09H1.183C0.871488 -1.88072e-05 0.572541 0.122832 0.351056 0.341884C0.12957 0.560936 0.0034232 0.858507 0 1.17V26.72C0.000530028 27.0333 0.125433 27.3336 0.34726 27.5549C0.569087 27.7761 0.869687 27.9003 1.183 27.9H1.46C1.77314 27.9 2.07348 27.7757 2.29509 27.5545C2.5167 27.3333 2.64147 27.0331 2.642 26.72ZM5.636 24.858H5.359C5.20361 24.8581 5.04972 24.8276 4.90613 24.7682C4.76254 24.7088 4.63208 24.6217 4.5222 24.5118C4.41232 24.4019 4.32519 24.2715 4.26578 24.1279C4.20638 23.9843 4.17587 23.8304 4.176 23.675V4.214C4.17942 3.90251 4.30557 3.60494 4.52706 3.38588C4.74854 3.16683 5.04749 3.04398 5.359 3.044H5.636C5.94751 3.04398 6.24646 3.16683 6.46794 3.38588C6.68943 3.60494 6.81558 3.90251 6.819 4.214V23.7C6.81913 23.8554 6.78862 24.0093 6.72922 24.1529C6.66981 24.2965 6.58268 24.4269 6.4728 24.5368C6.36292 24.6467 6.23246 24.7338 6.08887 24.7932C5.94528 24.8526 5.79139 24.8831 5.636 24.883V24.858ZM9.8 21.864H9.511C9.2007 21.864 8.9031 21.7407 8.68369 21.5213C8.46427 21.3019 8.341 21.0043 8.341 20.694V7.234C8.33928 7.07926 8.36827 6.92572 8.4263 6.78227C8.48433 6.63881 8.57024 6.50829 8.67905 6.39827C8.78787 6.28824 8.91743 6.2009 9.06024 6.14129C9.20304 6.08168 9.35625 6.05099 9.511 6.051H9.8C10.1115 6.05442 10.4091 6.18057 10.6281 6.40206C10.8472 6.62354 10.97 6.92249 10.97 7.234V20.694C10.97 21.0043 10.8467 21.3019 10.6273 21.5213C10.4079 21.7407 10.1103 21.864 9.8 21.864ZM13.964 18.782H13.7C13.3885 18.782 13.0895 18.6592 12.8681 18.4401C12.6466 18.2211 12.5204 17.9235 12.517 17.612V10.366C12.5066 10.2044 12.5295 10.0424 12.5843 9.89006C12.6391 9.73769 12.7246 9.59821 12.8355 9.48026C12.9464 9.3623 13.0804 9.2684 13.2291 9.20436C13.3778 9.14033 13.5381 9.10753 13.7 9.108H13.977C14.1324 9.10787 14.2863 9.13838 14.4299 9.19778C14.5735 9.25719 14.7039 9.34432 14.8138 9.4542C14.9237 9.56408 15.0108 9.69454 15.0702 9.83813C15.1296 9.98172 15.1601 10.1356 15.16 10.291V17.591C15.1623 17.7478 15.1333 17.9034 15.0749 18.0489C15.0164 18.1944 14.9297 18.3269 14.8196 18.4385C14.7095 18.5502 14.5783 18.6388 14.4337 18.6994C14.289 18.7599 14.1338 18.791 13.977 18.791L13.964 18.782ZM18.141 16.082H17.864C17.7086 16.0821 17.5547 16.0516 17.4111 15.9922C17.2675 15.9328 17.1371 15.8457 17.0272 15.7358C16.9173 15.6259 16.8302 15.4955 16.7708 15.3519C16.7114 15.2083 16.6809 15.0544 16.681 14.899V13.02C16.6844 12.7085 16.8106 12.4109 17.0321 12.1919C17.2535 11.9728 17.5525 11.85 17.864 11.85H18.141C18.4525 11.85 18.7515 11.9728 18.9729 12.1919C19.1944 12.4109 19.3206 12.7085 19.324 13.02V14.894C19.324 15.2055 19.2012 15.5045 18.9821 15.7259C18.7631 15.9474 18.4655 16.0736 18.154 16.077L18.141 16.082Z" fill="#394149"/>
</g>
<g opacity="0.55">
<path opacity="0.55" d="M261.454 27.2268C260.706 27.2684 259.967 27.057 259.354 26.6268C259.098 26.4372 258.892 26.188 258.754 25.9009C258.616 25.6137 258.549 25.2973 258.561 24.9788V13.3128C258.555 13.2634 258.56 13.2133 258.576 13.1662C258.592 13.1191 258.619 13.0763 258.654 13.0411C258.689 13.0059 258.732 12.9792 258.779 12.963C258.826 12.9469 258.877 12.9417 258.926 12.9478H261.039C261.278 12.9478 261.391 13.0738 261.391 13.3128V24.0688C261.391 24.5468 261.605 24.7858 262.045 24.7858C262.232 24.7936 262.419 24.7723 262.599 24.7228C262.851 24.7228 262.989 24.7978 262.999 25.0228L263.19 26.5928C263.199 26.6385 263.198 26.6856 263.188 26.731C263.177 26.7764 263.157 26.8189 263.128 26.8559C263.1 26.8928 263.064 26.9232 263.023 26.9451C262.982 26.967 262.936 26.9799 262.89 26.9828C262.427 27.1377 261.942 27.22 261.454 27.2268Z" fill="#394149"/>
<path opacity="0.55" d="M273.342 25.8808C272.28 26.7583 270.946 27.2383 269.568 27.2383C268.19 27.2383 266.856 26.7583 265.794 25.8808C264.86 24.9385 264.337 23.6657 264.337 22.3393C264.337 21.0129 264.86 19.7401 265.794 18.7978C266.858 17.9249 268.192 17.4478 269.568 17.4478C270.944 17.4478 272.278 17.9249 273.342 18.7978C274.254 19.7487 274.763 21.0153 274.763 22.3328C274.763 23.6504 274.254 24.9169 273.342 25.8678V25.8808ZM267.782 24.2168C268.275 24.6637 268.917 24.9113 269.582 24.9113C270.247 24.9113 270.889 24.6637 271.382 24.2168C271.828 23.7039 272.074 23.0468 272.074 22.3668C272.074 21.6868 271.828 21.0298 271.382 20.5168C270.889 20.0699 270.247 19.8224 269.582 19.8224C268.917 19.8224 268.275 20.0699 267.782 20.5168C267.336 21.0298 267.09 21.6868 267.09 22.3668C267.09 23.0468 267.336 23.7039 267.782 24.2168Z" fill="#394149"/>
<path opacity="0.55" d="M286.4 17.7668C286.639 17.7668 286.752 17.8928 286.752 18.1318V27.1518C286.774 27.7609 286.659 28.3671 286.417 28.9263C286.175 29.4856 285.811 29.9838 285.352 30.3848C284.335 31.2522 283.027 31.7018 281.691 31.6428C280.485 31.685 279.295 31.3555 278.282 30.6988C277.85 30.4148 277.48 30.0449 277.197 29.6121C276.913 29.1792 276.722 28.6927 276.634 28.1828C276.634 27.9308 276.634 27.8178 276.974 27.8178H279.087C279.177 27.8209 279.264 27.8498 279.337 27.9011C279.411 27.9524 279.468 28.0238 279.502 28.1068C279.639 28.4887 279.912 28.8067 280.269 28.9998C280.704 29.2244 281.188 29.3368 281.678 29.3268C281.973 29.3429 282.269 29.3001 282.548 29.2006C282.826 29.1012 283.083 28.9473 283.301 28.7478C283.501 28.5391 283.656 28.2921 283.758 28.0218C283.859 27.7514 283.905 27.4633 283.892 27.1748V26.3818C283.135 26.9386 282.214 27.2265 281.275 27.1998C280.618 27.2238 279.963 27.1148 279.349 26.8792C278.735 26.6436 278.174 26.2863 277.702 25.8288C276.795 24.8905 276.288 23.6364 276.288 22.3313C276.288 21.0262 276.795 19.7721 277.702 18.8338C278.177 18.3803 278.737 18.0264 279.351 17.793C279.965 17.5596 280.619 17.4514 281.275 17.4748C282.241 17.4492 283.187 17.7555 283.955 18.3428V18.1428C283.949 18.0946 283.954 18.0457 283.97 17.9997C283.985 17.9536 284.011 17.9116 284.044 17.8767C284.078 17.8417 284.119 17.8147 284.164 17.7976C284.21 17.7805 284.259 17.7737 284.307 17.7778L286.4 17.7668ZM281.519 24.9668C281.843 24.9768 282.165 24.9155 282.463 24.7873C282.761 24.6591 283.027 24.4671 283.242 24.2248C283.66 23.6847 283.887 23.0209 283.887 22.3378C283.887 21.6547 283.66 20.9909 283.242 20.4508C283.027 20.2115 282.763 20.0222 282.467 19.8961C282.172 19.7699 281.852 19.7101 281.531 19.7208C281.203 19.7105 280.877 19.7714 280.575 19.8996C280.273 20.0277 280.002 20.2198 279.782 20.4628C279.319 20.9795 279.075 21.6564 279.103 22.3498C279.08 23.0352 279.317 23.7039 279.767 24.2218C279.988 24.4641 280.259 24.6559 280.56 24.7839C280.862 24.912 281.188 24.9733 281.516 24.9638L281.519 24.9668Z" fill="#394149"/>
<path opacity="0.55" d="M297.609 25.8799C296.545 26.7529 295.211 27.23 293.835 27.23C292.459 27.23 291.125 26.7529 290.061 25.8799C289.148 24.9269 288.639 23.6581 288.639 22.3384C288.639 21.0187 289.148 19.75 290.061 18.7969C291.126 17.9263 292.459 17.4507 293.835 17.4507C295.211 17.4507 296.544 17.9263 297.609 18.7969C298.521 19.7478 299.03 21.0144 299.03 22.3319C299.03 23.6495 298.521 24.916 297.609 25.8669V25.8799ZM292.036 24.2169C292.526 24.6741 293.171 24.9283 293.842 24.9283C294.512 24.9283 295.157 24.6741 295.647 24.2169C296.086 23.7005 296.327 23.0448 296.327 22.3669C296.327 21.6891 296.086 21.0334 295.647 20.5169C295.157 20.0598 294.512 19.8056 293.842 19.8056C293.171 19.8056 292.526 20.0598 292.036 20.5169C291.597 21.0334 291.356 21.6891 291.356 22.3669C291.356 23.0448 291.597 23.7005 292.036 24.2169Z" fill="#394149"/>
<path opacity="0.55" d="M303.571 15.6278C303.239 15.9182 302.812 16.0782 302.371 16.0782C301.93 16.0782 301.503 15.9182 301.171 15.6278C301.02 15.4856 300.9 15.314 300.818 15.1236C300.736 14.9333 300.694 14.7282 300.694 14.5208C300.694 14.3135 300.736 14.1084 300.818 13.9181C300.9 13.7277 301.02 13.5561 301.171 13.4138C301.507 13.1308 301.932 12.9756 302.371 12.9756C302.81 12.9756 303.235 13.1308 303.571 13.4138C303.722 13.5561 303.842 13.7277 303.924 13.9181C304.006 14.1084 304.048 14.3135 304.048 14.5208C304.048 14.7282 304.006 14.9333 303.924 15.1236C303.842 15.314 303.722 15.4856 303.571 15.6278ZM303.835 27.2278C303.088 27.2655 302.349 27.0545 301.735 26.6278C301.483 26.4353 301.281 26.1852 301.145 25.8985C301.009 25.6118 300.944 25.2968 300.955 24.9798V18.1308C300.949 18.0814 300.954 18.0313 300.97 17.9842C300.986 17.9371 301.013 17.8943 301.048 17.8591C301.083 17.8239 301.126 17.7972 301.173 17.781C301.22 17.7649 301.271 17.7597 301.32 17.7658H303.433C303.672 17.7658 303.785 17.8918 303.785 18.1308V24.0688C303.785 24.5468 303.999 24.7858 304.427 24.7858C304.618 24.7927 304.808 24.7715 304.993 24.7228C305.245 24.7228 305.383 24.7978 305.393 25.0228L305.582 26.5958C305.591 26.6415 305.59 26.6886 305.58 26.734C305.569 26.7794 305.549 26.8219 305.52 26.8589C305.492 26.8958 305.456 26.9262 305.415 26.9481C305.374 26.97 305.329 26.9829 305.282 26.9858C304.815 27.1403 304.328 27.2216 303.836 27.2268L303.835 27.2278Z" fill="#394149"/>
<path opacity="0.55" d="M313.36 17.4648C314.021 17.4384 314.68 17.5452 315.298 17.7786C315.916 18.0121 316.482 18.3675 316.96 18.8238C317.849 19.7785 318.344 21.0349 318.344 22.3398C318.344 23.6447 317.849 24.901 316.96 25.8558C316.484 26.316 315.919 26.6747 315.301 26.9104C314.682 27.146 314.022 27.2537 313.36 27.2268C312.418 27.2476 311.495 26.9604 310.731 26.4088V30.9498C310.731 31.1888 310.605 31.3018 310.366 31.3018H308.252C308.204 31.3112 308.154 31.3087 308.107 31.2943C308.06 31.28 308.017 31.2543 307.982 31.2195C307.948 31.1847 307.922 31.1419 307.907 31.0949C307.893 31.0479 307.891 30.998 307.9 30.9498V20.6348C307.915 20.5339 307.906 20.431 307.874 20.3342C307.842 20.2374 307.787 20.1495 307.715 20.0774C307.643 20.0053 307.555 19.9511 307.459 19.919C307.362 19.887 307.259 19.878 307.158 19.8928H306.743C306.466 19.8928 306.328 19.7928 306.328 19.5928V18.1058C306.321 18.0139 306.346 17.9224 306.399 17.8468C306.451 17.7712 306.528 17.7161 306.617 17.6908C307.052 17.5328 307.513 17.4562 307.976 17.4648C308.437 17.4236 308.9 17.5209 309.305 17.7441C309.711 17.9673 310.04 18.3063 310.252 18.7178C310.657 18.3079 311.142 17.985 311.676 17.7687C312.21 17.5524 312.783 17.4473 313.359 17.4598L313.36 17.4648ZM311.397 24.2178C311.621 24.4525 311.89 24.6394 312.189 24.7671C312.487 24.8948 312.808 24.9606 313.133 24.9606C313.458 24.9606 313.779 24.8948 314.077 24.7671C314.376 24.6394 314.645 24.4525 314.869 24.2178C315.342 23.6908 315.59 23.0001 315.561 22.2928C315.594 21.5849 315.345 20.8927 314.869 20.3678C314.645 20.133 314.376 19.9462 314.077 19.8185C313.779 19.6908 313.458 19.625 313.133 19.625C312.808 19.625 312.487 19.6908 312.189 19.8185C311.89 19.9462 311.621 20.133 311.397 20.3678C310.939 20.902 310.701 21.5898 310.73 22.2928C310.704 22.9952 310.942 23.6818 311.397 24.2178Z" fill="#394149"/>
<path opacity="0.55" d="M324.279 27.2268C323.15 27.2733 322.03 27.0031 321.046 26.4468C320.651 26.209 320.315 25.8853 320.062 25.4998C319.81 25.1143 319.647 24.6768 319.587 24.2198C319.587 23.9678 319.675 23.8428 319.952 23.8428H321.801C321.889 23.8463 321.974 23.874 322.048 23.9229C322.121 23.9718 322.179 24.0399 322.216 24.1198C322.48 24.7988 323.172 25.1388 324.279 25.1388C324.665 25.1567 325.05 25.0791 325.399 24.9128C325.519 24.8586 325.623 24.7726 325.698 24.6641C325.774 24.5556 325.818 24.4287 325.827 24.2968C325.827 23.9698 325.627 23.7428 325.227 23.5968C324.749 23.4377 324.256 23.3321 323.755 23.2818C323.162 23.2145 322.574 23.1093 321.994 22.9668C321.43 22.8392 320.917 22.5456 320.522 22.1238C320.289 21.8372 320.118 21.5058 320.018 21.1501C319.919 20.7944 319.894 20.422 319.945 20.0562C319.995 19.6904 320.121 19.339 320.313 19.0237C320.506 18.7085 320.761 18.4362 321.063 18.2238C321.97 17.6464 323.033 17.3651 324.107 17.4188C325.147 17.3836 326.175 17.6407 327.076 18.1608C327.439 18.3665 327.752 18.6504 327.991 18.9921C328.23 19.3337 328.391 19.7245 328.46 20.1358C328.46 20.3872 328.347 20.5128 328.12 20.5128H326.254C326.176 20.5174 326.098 20.4983 326.031 20.458C325.963 20.4177 325.91 20.358 325.877 20.2868C325.753 19.9888 325.519 19.75 325.223 19.6198C324.89 19.4453 324.517 19.3586 324.141 19.3678C323.772 19.348 323.405 19.4216 323.072 19.5818C322.955 19.6275 322.855 19.707 322.783 19.8102C322.712 19.9133 322.673 20.0355 322.672 20.1608C322.68 20.3323 322.742 20.4968 322.85 20.6303C322.958 20.7638 323.106 20.8593 323.272 20.9028C323.756 21.085 324.259 21.2115 324.772 21.2798C325.36 21.3573 325.944 21.4665 326.521 21.6068C327.085 21.7345 327.598 22.0281 327.993 22.4498C328.204 22.6821 328.368 22.954 328.473 23.2497C328.579 23.5455 328.625 23.8592 328.609 24.1728C328.62 24.6077 328.518 25.038 328.313 25.4217C328.108 25.8053 327.807 26.1293 327.439 26.3618C326.498 26.9645 325.396 27.2662 324.279 27.2268Z" fill="#394149"/>
<path opacity="0.55" d="M341.904 26.5978C341.911 26.6424 341.909 26.6879 341.899 26.7318C341.888 26.776 341.868 26.8175 341.841 26.8538C341.814 26.8904 341.78 26.921 341.741 26.9438C341.702 26.9668 341.659 26.9818 341.614 26.9878C341.155 27.1379 340.675 27.2184 340.192 27.2268C339.714 27.2764 339.231 27.2017 338.79 27.0101C338.35 26.8184 337.966 26.5163 337.676 26.1328C336.787 26.8967 335.638 27.2885 334.468 27.2268C333.925 27.2516 333.383 27.1625 332.876 26.9653C332.369 26.7682 331.909 26.4672 331.526 26.0818C331.145 25.6779 330.849 25.2011 330.657 24.6801C330.464 24.1591 330.379 23.6046 330.406 23.0498V18.1318C330.406 17.8928 330.519 17.7668 330.758 17.7668H332.871C333.11 17.7668 333.223 17.8928 333.223 18.1318V22.6728C333.2 23.2387 333.394 23.7919 333.765 24.2198C333.95 24.4161 334.175 24.5704 334.424 24.6723C334.674 24.7743 334.943 24.8215 335.212 24.8108C335.488 24.8229 335.763 24.7801 336.022 24.685C336.282 24.5899 336.519 24.4444 336.722 24.2568C336.914 24.0588 337.063 23.8235 337.16 23.5655C337.258 23.3075 337.301 23.0323 337.288 22.7568V18.1318C337.288 17.8928 337.401 17.7668 337.64 17.7668H339.779C340.018 17.7668 340.131 17.8928 340.131 18.1318V24.0568C340.131 24.5478 340.345 24.7868 340.76 24.7868C340.955 24.7944 341.15 24.7732 341.339 24.7238C341.387 24.7104 341.437 24.7079 341.485 24.7166C341.534 24.7252 341.58 24.7448 341.62 24.7738C341.661 24.8025 341.695 24.8401 341.72 24.8838C341.743 24.9276 341.756 24.9757 341.758 25.0248L341.904 26.5978Z" fill="#394149"/>
<path opacity="0.55" d="M361.889 26.598C361.899 26.6434 361.899 26.6905 361.889 26.736C361.879 26.7815 361.86 26.8245 361.832 26.862C361.806 26.8989 361.772 26.9296 361.732 26.952C361.691 26.9741 361.646 26.9868 361.6 26.989C361.132 27.1411 360.645 27.2217 360.153 27.228C359.406 27.2675 358.667 27.0564 358.053 26.628C357.788 26.4437 357.572 26.197 357.425 25.9095C357.278 25.6221 357.204 25.3028 357.21 24.98V22.018C357.237 21.454 357.048 20.901 356.682 20.471C356.506 20.2743 356.288 20.1193 356.044 20.0171C355.8 19.9149 355.537 19.868 355.273 19.88C355.035 19.8709 354.798 19.9161 354.58 20.0121C354.362 20.108 354.169 20.2523 354.015 20.434C353.683 20.8553 353.513 21.382 353.537 21.918V26.56C353.537 26.799 353.424 26.925 353.185 26.925H351.059C351.01 26.9311 350.959 26.9258 350.912 26.9097C350.865 26.8936 350.822 26.867 350.787 26.832C350.752 26.7967 350.725 26.754 350.709 26.707C350.693 26.6598 350.688 26.6095 350.694 26.56V22.018C350.721 21.4601 350.547 20.9111 350.203 20.471C350.049 20.2862 349.857 20.1375 349.64 20.0354C349.422 19.9333 349.185 19.8802 348.945 19.88C348.688 19.8697 348.432 19.9137 348.194 20.0092C347.955 20.1047 347.74 20.2494 347.561 20.434C347.201 20.842 347.016 21.3748 347.045 21.918V26.56C347.051 26.6095 347.046 26.6598 347.03 26.707C347.014 26.7531 346.987 26.795 346.953 26.8296C346.918 26.8642 346.876 26.8907 346.83 26.907C346.783 26.9229 346.733 26.9281 346.683 26.922H344.632C344.393 26.922 344.28 26.796 344.28 26.557V20.635C344.295 20.534 344.286 20.4309 344.254 20.334C344.221 20.2372 344.167 20.1491 344.095 20.077C344.023 20.0049 343.935 19.9506 343.838 19.9185C343.742 19.8863 343.639 19.8773 343.538 19.892H343.123C342.846 19.892 342.708 19.792 342.708 19.592V18.106C342.701 18.0141 342.726 17.9226 342.779 17.847C342.831 17.7714 342.908 17.7163 342.997 17.691C343.432 17.5329 343.893 17.4563 344.356 17.465C344.8 17.427 345.246 17.5155 345.643 17.7202C346.039 17.9249 346.369 18.2376 346.595 18.622C347.02 18.2192 347.524 17.9085 348.074 17.7094C348.625 17.5103 349.211 17.4271 349.795 17.465C350.362 17.4372 350.927 17.5434 351.445 17.775C351.963 18.0066 352.419 18.3571 352.776 18.798C353.193 18.345 353.705 17.9905 354.276 17.7599C354.847 17.5294 355.462 17.4286 356.076 17.465C356.625 17.4394 357.174 17.5279 357.687 17.725C358.2 17.9221 358.667 18.2234 359.058 18.61C359.44 19.0133 359.736 19.49 359.929 20.0111C360.121 20.5323 360.206 21.0871 360.178 21.642V24.07C360.178 24.548 360.392 24.787 360.794 24.787C360.989 24.796 361.184 24.7748 361.373 24.724C361.634 24.724 361.772 24.824 361.788 25.024L361.889 26.598Z" fill="#394149"/>
<path opacity="0.55" d="M214.379 16.1308C215.307 12.4004 217.457 9.08782 220.485 6.72041C223.514 4.35299 227.247 3.06689 231.092 3.06689C234.936 3.06689 238.669 4.35299 241.698 6.72041C244.726 9.08782 246.876 12.4004 247.804 16.1308H246.294C243.748 16.0937 241.254 16.8546 239.163 18.3068C239.042 18.3942 238.917 18.474 238.786 18.5458H238.61C238.48 18.474 238.354 18.3942 238.233 18.3068C236.123 16.8878 233.637 16.1298 231.094 16.1298C228.551 16.1298 226.065 16.8878 223.955 18.3068C223.834 18.3942 223.709 18.474 223.578 18.5458H223.402C223.272 18.474 223.146 18.3942 223.025 18.3068C220.933 16.8542 218.439 16.0932 215.892 16.1308H214.379ZM243.579 24.0188C244.354 23.4155 245.314 23.0998 246.296 23.1258H248.321V19.0868H246.295C244.566 19.0661 242.876 19.6045 241.477 20.6218C240.69 21.2022 239.738 21.5154 238.76 21.5154C237.781 21.5154 236.829 21.2022 236.042 20.6218C234.608 19.6233 232.902 19.088 231.155 19.088C229.407 19.088 227.701 19.6233 226.267 20.6218C225.48 21.2022 224.528 21.5154 223.55 21.5154C222.571 21.5154 221.619 21.2022 220.832 20.6218C219.416 19.5913 217.702 19.0523 215.951 19.0868H213.863V23.1248H215.888C216.87 23.0988 217.83 23.4145 218.605 24.0178C220.037 25.0169 221.74 25.5526 223.486 25.5526C225.232 25.5526 226.935 25.0169 228.367 24.0178C229.143 23.4163 230.103 23.1009 231.084 23.1248C232.066 23.0967 233.027 23.4125 233.801 24.0178C235.235 25.0163 236.941 25.5516 238.689 25.5516C240.436 25.5516 242.142 25.0163 243.576 24.0178L243.579 24.0188ZM243.579 31.2398C244.354 30.6365 245.314 30.3208 246.296 30.3468H248.321V26.3078H246.295C244.566 26.2871 242.876 26.8254 241.477 27.8428C240.69 28.4232 239.738 28.7364 238.76 28.7364C237.781 28.7364 236.829 28.4232 236.042 27.8428C234.608 26.8444 232.902 26.3092 231.155 26.3092C229.407 26.3092 227.701 26.8444 226.267 27.8428C225.48 28.4232 224.528 28.7364 223.55 28.7364C222.571 28.7364 221.619 28.4232 220.832 27.8428C219.416 26.8124 217.702 26.2733 215.951 26.3078H213.863V30.3468H215.888C216.87 30.3208 217.83 30.6365 218.605 31.2398C220.037 32.2389 221.74 32.7746 223.486 32.7746C225.232 32.7746 226.935 32.2389 228.367 31.2398C229.143 30.6383 230.103 30.3229 231.084 30.3468C232.066 30.3186 233.027 30.6345 233.801 31.2398C235.235 32.2383 236.941 32.7736 238.689 32.7736C240.436 32.7736 242.142 32.2383 243.576 31.2398H243.579Z" fill="#394149"/>
</g>
<g opacity="0.55">
<path opacity="0.55" d="M463.851 11.3339H467.625V26.5939H463.851V11.3339ZM469.122 20.8339C469.122 17.0599 471.437 14.8079 475.01 14.8079C478.583 14.8079 480.898 17.0599 480.898 20.8339C480.898 24.6079 478.634 26.8719 475.01 26.8719C471.386 26.8719 469.122 24.6689 469.122 20.8329V20.8339ZM477.11 20.8339C477.11 18.7579 476.292 17.5339 475.01 17.5339C473.728 17.5339 472.922 18.7919 472.922 20.8339C472.922 22.8759 473.715 24.1049 475.01 24.1049C476.305 24.1049 477.11 22.9479 477.11 20.8469V20.8339ZM482.318 27.3339H485.941C486.113 27.7179 486.405 28.0359 486.772 28.2404C487.14 28.445 487.564 28.5251 487.981 28.4689C489.415 28.4689 490.17 27.6889 490.17 26.5569V24.4429H490.095C489.794 25.0905 489.306 25.6332 488.694 26.0009C488.082 26.3687 487.374 26.5445 486.661 26.5059C483.906 26.5059 482.082 24.4059 482.082 20.7949C482.082 17.1839 483.818 14.9069 486.712 14.9069C487.447 14.8786 488.173 15.0755 488.793 15.4712C489.413 15.8669 489.897 16.4424 490.181 17.1209V15.0209H493.955V26.4679C493.955 29.2229 491.527 30.9339 487.942 30.9339C484.608 30.9339 482.533 29.4339 482.319 27.3489L482.318 27.3339ZM490.181 20.8199C490.181 18.9829 489.338 17.8259 488.005 17.8259C486.672 17.8259 485.854 18.9709 485.854 20.8199C485.854 22.6689 486.659 23.7129 488.005 23.7129C489.351 23.7129 490.181 22.6939 490.181 20.8329V20.8199ZM495.381 20.8199C495.381 17.0459 497.696 14.7939 501.269 14.7939C504.842 14.7939 507.169 17.0459 507.169 20.8199C507.169 24.5939 504.905 26.8579 501.269 26.8579C497.633 26.8579 495.381 24.6689 495.381 20.8329V20.8199ZM503.369 20.8199C503.369 18.7439 502.551 17.5199 501.269 17.5199C499.987 17.5199 499.244 18.7909 499.244 20.8409C499.244 22.8909 500.037 24.1119 501.32 24.1119C502.603 24.1119 503.371 22.9419 503.371 20.8409L503.369 20.8199ZM508.602 12.2779C508.592 11.8967 508.696 11.5211 508.9 11.1988C509.104 10.8766 509.399 10.6221 509.748 10.4678C510.096 10.3135 510.483 10.2663 510.859 10.3321C511.234 10.3979 511.582 10.5739 511.857 10.8376C512.133 11.1013 512.324 11.4408 512.406 11.8132C512.488 12.1857 512.458 12.5741 512.319 12.9293C512.18 13.2844 511.939 13.5904 511.626 13.8082C511.313 14.0261 510.942 14.146 510.561 14.1529C510.308 14.1703 510.055 14.1352 509.816 14.05C509.578 13.9647 509.36 13.8311 509.175 13.6574C508.991 13.4838 508.845 13.2739 508.745 13.041C508.646 12.8081 508.596 12.5571 508.598 12.3039L508.602 12.2779ZM508.602 15.0459H512.376V26.5939H508.599L508.602 15.0459ZM526.076 20.8199C526.076 24.5939 524.403 26.7449 521.535 26.7449C520.8 26.7917 520.068 26.6117 519.438 26.2292C518.808 25.8466 518.311 25.2801 518.013 24.6059H517.938V30.2929H514.159V15.0199H517.933V17.0829H518.008C518.292 16.3969 518.78 15.815 519.406 15.4165C520.033 15.018 520.766 14.8222 521.508 14.8559C524.401 14.9059 526.125 17.0699 526.125 20.8439L526.076 20.8199ZM522.302 20.8199C522.302 18.9829 521.459 17.8129 520.138 17.8129C518.817 17.8129 517.974 18.9959 517.962 20.8199C517.95 22.6439 518.817 23.8139 520.138 23.8139C521.459 23.8139 522.302 22.6689 522.302 20.8449V20.8199ZM532.555 14.7819C535.687 14.7819 537.587 16.2659 537.675 18.6439H534.241C534.241 17.8259 533.562 17.3109 532.518 17.3109C531.474 17.3109 531.008 17.7109 531.008 18.3049C531.008 18.8989 531.423 19.0849 532.266 19.2609L534.681 19.7519C536.981 20.2429 537.964 21.1739 537.964 22.9219C537.964 25.3119 535.788 26.8469 532.58 26.8469C529.372 26.8469 527.271 25.3119 527.108 22.9599H530.744C530.857 23.8149 531.537 24.3189 532.644 24.3189C533.751 24.3189 534.254 23.9539 534.254 23.3499C534.254 22.7459 533.902 22.6199 532.996 22.4319L530.82 21.9669C528.568 21.5019 527.386 20.3059 527.386 18.5449C527.411 16.2809 529.437 14.8089 532.556 14.8089L532.555 14.7819ZM550.555 26.5699H546.919V24.4179H546.843C546.643 25.1396 546.202 25.7712 545.593 26.2077C544.984 26.6442 544.245 26.8596 543.497 26.8179C542.924 26.8505 542.35 26.7597 541.815 26.5515C541.279 26.3434 540.795 26.0228 540.394 25.6113C539.994 25.1999 539.686 24.7073 539.492 24.1667C539.298 23.6261 539.222 23.0502 539.27 22.4779V15.0179H543.044V21.6099C543.044 22.9809 543.744 23.7099 544.918 23.7099C545.192 23.7104 545.464 23.6523 545.714 23.5394C545.964 23.4266 546.187 23.2616 546.368 23.0555C546.549 22.8495 546.684 22.6072 546.763 22.3447C546.843 22.0823 546.866 21.8059 546.83 21.5339V15.0199H550.604L550.555 26.5699ZM552.381 15.0199H556.029V17.2469H556.104C556.304 16.5342 556.735 15.9079 557.329 15.4662C557.923 15.0245 558.647 14.7923 559.387 14.8059C560.14 14.7454 560.888 14.9707 561.483 15.437C562.077 15.9032 562.474 16.5761 562.595 17.3219H562.67C562.899 16.5684 563.371 15.9122 564.013 15.4567C564.656 15.0012 565.431 14.7723 566.218 14.8059C566.731 14.7885 567.243 14.8794 567.718 15.0726C568.194 15.2657 568.624 15.5569 568.98 15.9271C569.336 16.2973 569.61 16.7382 569.784 17.2213C569.959 17.7044 570.03 18.2187 569.992 18.7309V26.5939H566.218V19.7379C566.218 18.4799 565.652 17.9009 564.595 17.9009C564.359 17.8987 564.126 17.9472 563.911 18.043C563.695 18.1388 563.503 18.2798 563.347 18.4563C563.19 18.6328 563.074 18.8408 563.005 19.0662C562.936 19.2916 562.916 19.5292 562.947 19.7629V26.5939H559.362V19.6879C559.362 18.5309 558.796 17.9019 557.762 17.9019C557.524 17.9019 557.288 17.9524 557.071 18.0502C556.853 18.148 556.659 18.2907 556.501 18.4691C556.343 18.6474 556.224 18.8573 556.153 19.0848C556.082 19.3123 556.06 19.5523 556.089 19.7889V26.5949H552.315L552.381 15.0199Z" fill="#394149"/>
<path opacity="0.55" d="M453.297 12.026C452.657 10.562 451.81 9.1977 450.781 7.97495C449.262 6.11111 447.365 4.59035 445.215 3.51287C443.065 2.43538 440.712 1.82563 438.309 1.72377C435.907 1.62192 433.51 2.03028 431.277 2.92195C429.043 3.81362 427.024 5.16836 425.353 6.89692C423.681 8.62548 422.395 10.6886 421.578 12.9504C420.762 15.2122 420.434 17.6214 420.616 20.0191C420.798 22.4169 421.486 24.7488 422.635 26.8613C423.784 28.9737 425.367 30.8188 427.281 32.275C428.508 33.2277 429.863 34.002 431.307 34.575C433.331 35.4044 435.498 35.8317 437.685 35.833C442.199 35.8229 446.526 34.0238 449.716 30.8298C452.907 27.6358 454.701 23.3074 454.706 18.793C454.709 16.4638 454.23 14.1593 453.297 12.025V12.026ZM437.672 5.19295C439.637 5.19339 441.577 5.62343 443.358 6.45295C442.924 6.64065 442.467 6.77172 441.999 6.84295C440.46 7.06603 439.035 7.78051 437.936 8.87982C436.837 9.97914 436.122 11.4044 435.899 12.943C435.801 13.8061 435.409 14.6092 434.788 15.2165C434.167 15.8239 433.355 16.1985 432.49 16.277C430.951 16.5 429.526 17.2145 428.427 18.3138C427.328 19.4131 426.613 20.8384 426.39 22.377C426.315 23.1977 425.964 23.969 425.396 24.566C424.415 22.4943 423.975 20.2081 424.115 17.9204C424.256 15.6326 424.973 13.4176 426.199 11.4814C427.426 9.54518 429.123 7.95078 431.131 6.84657C433.14 5.74236 435.395 5.16422 437.687 5.16595L437.672 5.19295ZM427.268 27.601C427.419 27.463 427.568 27.337 427.721 27.186C428.84 26.101 429.559 24.6687 429.759 23.123C429.84 22.2539 430.228 21.4421 430.853 20.833C431.455 20.2067 432.264 19.8219 433.13 19.751C434.669 19.5279 436.094 18.8134 437.193 17.7141C438.292 16.6148 439.007 15.1895 439.23 13.651C439.285 12.7431 439.675 11.8879 440.324 11.251C440.94 10.6374 441.757 10.2667 442.624 10.207C444.041 10.0126 445.363 9.38212 446.406 8.40295C447.592 9.3876 448.597 10.5721 449.375 11.903C449.327 11.9675 449.272 12.0265 449.211 12.079C448.611 12.7107 447.802 13.1039 446.934 13.186C445.394 13.405 443.966 14.1182 442.866 15.2182C441.766 16.3183 441.053 17.7457 440.834 19.286C440.745 20.1519 440.36 20.9606 439.743 21.5749C439.126 22.1893 438.316 22.5715 437.45 22.657C435.907 22.878 434.476 23.5909 433.37 24.6898C432.264 25.7887 431.542 27.215 431.311 28.757C431.243 29.3716 431.032 29.9617 430.695 30.48C429.404 29.7136 428.248 28.7403 427.273 27.599L427.268 27.601ZM437.668 32.457C436.392 32.4584 435.121 32.2807 433.894 31.929C434.314 31.1465 434.587 30.2937 434.699 29.413C434.787 28.549 435.171 27.7419 435.785 27.1278C436.399 26.5137 437.206 26.1302 438.07 26.042C439.611 25.8218 441.04 25.1086 442.142 24.009C443.244 22.9095 443.96 21.4826 444.184 19.942C444.272 19.078 444.656 18.2709 445.27 17.6568C445.884 17.0427 446.691 16.6592 447.555 16.571C448.715 16.4202 449.821 15.9883 450.776 15.313C451.306 17.3225 451.368 19.4266 450.958 21.464C450.549 23.5014 449.678 25.418 448.413 27.0668C447.148 28.7156 445.522 30.0528 443.66 30.9761C441.799 31.8993 439.75 32.384 437.672 32.393L437.668 32.457Z" fill="#394149"/>
</g>
</svg>
