<svg width="120" height="39" viewBox="0 0 120 39" fill="none" xmlns="http://www.w3.org/2000/svg">
<path d="M2.55682 31V7.72727H16.9886V10.75H6.06818V17.8409H15.9545V20.8523H6.06818V31H2.55682ZM27.1051 31.3523C25.4688 31.3523 24.0407 30.9773 22.821 30.2273C21.6013 29.4773 20.6544 28.428 19.9801 27.0795C19.3059 25.7311 18.9688 24.1553 18.9688 22.3523C18.9688 20.5417 19.3059 18.9583 19.9801 17.6023C20.6544 16.2462 21.6013 15.1932 22.821 14.4432C24.0407 13.6932 25.4688 13.3182 27.1051 13.3182C28.7415 13.3182 30.1695 13.6932 31.3892 14.4432C32.6089 15.1932 33.5559 16.2462 34.2301 17.6023C34.9044 18.9583 35.2415 20.5417 35.2415 22.3523C35.2415 24.1553 34.9044 25.7311 34.2301 27.0795C33.5559 28.428 32.6089 29.4773 31.3892 30.2273C30.1695 30.9773 28.7415 31.3523 27.1051 31.3523ZM27.1165 28.5C28.1771 28.5 29.0559 28.2197 29.7528 27.6591C30.4498 27.0985 30.965 26.3523 31.2983 25.4205C31.6392 24.4886 31.8097 23.4621 31.8097 22.3409C31.8097 21.2273 31.6392 20.2045 31.2983 19.2727C30.965 18.3333 30.4498 17.5795 29.7528 17.0114C29.0559 16.4432 28.1771 16.1591 27.1165 16.1591C26.0483 16.1591 25.1619 16.4432 24.4574 17.0114C23.7604 17.5795 23.2415 18.3333 22.9006 19.2727C22.5672 20.2045 22.4006 21.2273 22.4006 22.3409C22.4006 23.4621 22.5672 24.4886 22.9006 25.4205C23.2415 26.3523 23.7604 27.0985 24.4574 27.6591C25.1619 28.2197 26.0483 28.5 27.1165 28.5ZM46.3864 31.3523C44.75 31.3523 43.322 30.9773 42.1023 30.2273C40.8826 29.4773 39.9356 28.428 39.2614 27.0795C38.5871 25.7311 38.25 24.1553 38.25 22.3523C38.25 20.5417 38.5871 18.9583 39.2614 17.6023C39.9356 16.2462 40.8826 15.1932 42.1023 14.4432C43.322 13.6932 44.75 13.3182 46.3864 13.3182C48.0227 13.3182 49.4508 13.6932 50.6705 14.4432C51.8902 15.1932 52.8371 16.2462 53.5114 17.6023C54.1856 18.9583 54.5227 20.5417 54.5227 22.3523C54.5227 24.1553 54.1856 25.7311 53.5114 27.0795C52.8371 28.428 51.8902 29.4773 50.6705 30.2273C49.4508 30.9773 48.0227 31.3523 46.3864 31.3523ZM46.3977 28.5C47.4583 28.5 48.3371 28.2197 49.0341 27.6591C49.7311 27.0985 50.2462 26.3523 50.5795 25.4205C50.9205 24.4886 51.0909 23.4621 51.0909 22.3409C51.0909 21.2273 50.9205 20.2045 50.5795 19.2727C50.2462 18.3333 49.7311 17.5795 49.0341 17.0114C48.3371 16.4432 47.4583 16.1591 46.3977 16.1591C45.3295 16.1591 44.4432 16.4432 43.7386 17.0114C43.0417 17.5795 42.5227 18.3333 42.1818 19.2727C41.8485 20.2045 41.6818 21.2273 41.6818 22.3409C41.6818 23.4621 41.8485 24.4886 42.1818 25.4205C42.5227 26.3523 43.0417 27.0985 43.7386 27.6591C44.4432 28.2197 45.3295 28.5 46.3977 28.5ZM64.8494 31.3409C63.4403 31.3409 62.1828 30.9811 61.0767 30.2614C59.9782 29.5341 59.1146 28.5 58.4858 27.1591C57.8646 25.8106 57.554 24.1932 57.554 22.3068C57.554 20.4205 57.8684 18.8068 58.4972 17.4659C59.1335 16.125 60.0047 15.0985 61.1108 14.3864C62.2169 13.6742 63.4706 13.3182 64.8722 13.3182C65.9555 13.3182 66.8267 13.5 67.4858 13.8636C68.1525 14.2197 68.6676 14.6364 69.0312 15.1136C69.4025 15.5909 69.6903 16.0114 69.8949 16.375H70.0994V7.72727H73.4972V31H70.179V28.2841H69.8949C69.6903 28.6553 69.3949 29.0795 69.0085 29.5568C68.6297 30.0341 68.107 30.4508 67.4403 30.8068C66.7737 31.1629 65.91 31.3409 64.8494 31.3409ZM65.5994 28.4432C66.5767 28.4432 67.4025 28.1856 68.0767 27.6705C68.7585 27.1477 69.2737 26.4242 69.6222 25.5C69.9782 24.5758 70.1562 23.5 70.1562 22.2727C70.1562 21.0606 69.982 20 69.6335 19.0909C69.285 18.1818 68.7737 17.4735 68.0994 16.9659C67.4252 16.4583 66.5919 16.2045 65.5994 16.2045C64.5767 16.2045 63.7244 16.4697 63.0426 17C62.3608 17.5303 61.8456 18.2538 61.4972 19.1705C61.1563 20.0871 60.9858 21.1212 60.9858 22.2727C60.9858 23.4394 61.16 24.4886 61.5085 25.4205C61.857 26.3523 62.3722 27.0909 63.054 27.6364C63.7434 28.1742 64.5919 28.4432 65.5994 28.4432ZM78.3466 31V13.5455H81.7443V31H78.3466ZM80.0625 10.8523C79.4716 10.8523 78.964 10.6553 78.5398 10.2614C78.1231 9.85985 77.9148 9.38257 77.9148 8.82954C77.9148 8.26894 78.1231 7.79167 78.5398 7.39773C78.964 6.99621 79.4716 6.79545 80.0625 6.79545C80.6534 6.79545 81.1572 6.99621 81.5739 7.39773C81.9981 7.79167 82.2102 8.26894 82.2102 8.82954C82.2102 9.38257 81.9981 9.85985 81.5739 10.2614C81.1572 10.6553 80.6534 10.8523 80.0625 10.8523ZM93.8381 31.3523C92.1184 31.3523 90.6373 30.9848 89.3949 30.25C88.16 29.5076 87.2055 28.4659 86.5312 27.125C85.8646 25.7765 85.5312 24.197 85.5312 22.3864C85.5312 20.5985 85.8646 19.0227 86.5312 17.6591C87.2055 16.2955 88.1449 15.2311 89.3494 14.4659C90.5616 13.7008 91.9782 13.3182 93.5994 13.3182C94.5843 13.3182 95.5388 13.4811 96.4631 13.8068C97.3873 14.1326 98.2169 14.6439 98.9517 15.3409C99.6866 16.0379 100.266 16.9432 100.69 18.0568C101.115 19.1629 101.327 20.5076 101.327 22.0909V23.2955H87.4517V20.75H97.9972C97.9972 19.8561 97.8153 19.0644 97.4517 18.375C97.0881 17.678 96.5767 17.1288 95.9176 16.7273C95.2661 16.3258 94.5009 16.125 93.6222 16.125C92.6676 16.125 91.8343 16.3598 91.1222 16.8295C90.4176 17.2917 89.8722 17.8977 89.4858 18.6477C89.107 19.3902 88.9176 20.197 88.9176 21.0682V23.0568C88.9176 24.2235 89.1222 25.2159 89.5312 26.0341C89.9479 26.8523 90.5275 27.4773 91.2699 27.9091C92.0123 28.3333 92.8797 28.5455 93.8722 28.5455C94.5161 28.5455 95.1032 28.4545 95.6335 28.2727C96.1638 28.0833 96.6222 27.803 97.0085 27.4318C97.3949 27.0606 97.6903 26.6023 97.8949 26.0568L101.111 26.6364C100.853 27.5833 100.391 28.4129 99.7244 29.125C99.0653 29.8295 98.2358 30.3788 97.2358 30.7727C96.2434 31.1591 95.1108 31.3523 93.8381 31.3523ZM118.176 17.8068L115.097 18.3523C114.968 17.9583 114.763 17.5833 114.483 17.2273C114.21 16.8712 113.839 16.5795 113.369 16.3523C112.9 16.125 112.313 16.0114 111.608 16.0114C110.646 16.0114 109.843 16.2273 109.199 16.6591C108.555 17.0833 108.233 17.6326 108.233 18.3068C108.233 18.8902 108.449 19.3598 108.881 19.7159C109.313 20.072 110.009 20.3636 110.972 20.5909L113.744 21.2273C115.35 21.5985 116.547 22.1705 117.335 22.9432C118.123 23.7159 118.517 24.7197 118.517 25.9545C118.517 27 118.214 27.9318 117.608 28.75C117.009 29.5606 116.172 30.197 115.097 30.6591C114.028 31.1212 112.79 31.3523 111.381 31.3523C109.426 31.3523 107.831 30.9356 106.597 30.1023C105.362 29.2614 104.604 28.0682 104.324 26.5227L107.608 26.0227C107.813 26.8788 108.233 27.5265 108.869 27.9659C109.506 28.3977 110.335 28.6136 111.358 28.6136C112.472 28.6136 113.362 28.3826 114.028 27.9205C114.695 27.4508 115.028 26.8788 115.028 26.2045C115.028 25.6591 114.824 25.2008 114.415 24.8295C114.013 24.4583 113.396 24.178 112.562 23.9886L109.608 23.3409C107.979 22.9697 106.775 22.3788 105.994 21.5682C105.222 20.7576 104.835 19.7311 104.835 18.4886C104.835 17.4583 105.123 16.5568 105.699 15.7841C106.275 15.0114 107.07 14.4091 108.085 13.9773C109.1 13.5379 110.263 13.3182 111.574 13.3182C113.46 13.3182 114.945 13.7273 116.028 14.5455C117.112 15.3561 117.828 16.4432 118.176 17.8068Z" fill="#06C167"/>
</svg>
